<svg xmlns="http://www.w3.org/2000/svg" viewBox="0 0 512 512" role="img" aria-label="Harvest Points icon">
  <rect width="512" height="512" rx="104" fill="#2f6b22"/>
  <circle cx="256" cy="256" r="190" fill="#f7ffe2"/>
  <path d="M256 356V142" stroke="#72512c" stroke-width="28" stroke-linecap="round"/>
  <path d="M256 214c-48-6-88-34-111-77 52 0 93 27 111 77Z" fill="#f4b942"/>
  <path d="M256 278c-54-5-98-36-122-84 58 0 103 30 122 84Z" fill="#e8a72d"/>
  <path d="M256 214c48-6 88-34 111-77-52 0-93 27-111 77Z" fill="#ffd166"/>
  <path d="M256 278c54-5 98-36 122-84-58 0-103 30-122 84Z" fill="#f4b942"/>
  <path d="M256 342c-43-3-78-27-98-66 46 0 82 25 98 66Z" fill="#d9951e"/>
  <path d="M256 342c43-3 78-27 98-66-46 0-82 25-98 66Z" fill="#e8a72d"/>
</svg>
